<svg width="56" height="56" viewBox="0 0 56 56" fill="none" xmlns="http://www.w3.org/2000/svg">
<g clip-path="url(#clip0_487_4900)">
<path fill-rule="evenodd" clip-rule="evenodd" d="M26.1 40.2992H21V32.1992H26.1C28.3 32.1992 30.1 33.9992 30.1 36.1992C30.1 38.4992 28.3 40.2992 26.1 40.2992Z" fill="#8841A2"/>
<path fill-rule="evenodd" clip-rule="evenodd" d="M36 38.4016V54.8016C35.3 55.0016 34.7 55.2016 34 55.3016C33.7 55.4016 33.5 55.4016 33.2 55.5016C33.1 55.5016 33 55.5016 32.9 55.5016C32.6 55.6016 32.4 55.6016 32.1 55.6016C31.8 55.6016 31.4 55.7016 31.1 55.7016C30.9 55.7016 30.6 55.7016 30.3 55.8016C30 55.8016 29.6 55.8016 29.3 55.9016C28.9 55.9016 28.4 55.9016 28 55.9016C27.6 55.9016 27.2 55.9016 26.7 55.9016C26.5 55.9016 26.3 55.9016 26 55.9016V36.4016C26 36.1016 26.1 35.7016 26.3 35.5016C26.5 35.3016 26.9 35.1016 27.2 35.1016H32.6C33.5 35.1016 34.3 35.4016 34.8 36.0016C35.6 36.7016 36 37.5016 36 38.4016Z" fill="#8841A2"/>
<path fill-rule="evenodd" clip-rule="evenodd" d="M24.7992 16.1016H18.0992C17.4992 16.1016 16.8992 16.3016 16.3992 16.8016C15.9992 17.2016 15.6992 17.2016 15.6992 17.8016V24.7016C15.6992 25.3016 15.8992 25.9016 16.3992 26.3016L24.6992 32.1016L24.7992 16.1016Z" fill="#4B4B4B"/>
<path d="M27.5984 25.6016H18.3984V38.6016H27.5984V25.6016Z" fill="#F39D56"/>
<path fill-rule="evenodd" clip-rule="evenodd" d="M26.8 36.4016V38.6016V40.2016V54.2016V56.0016C26.6 56.0016 26.4 56.0016 26.1 56.0016C17.4 55.3016 9.7 50.8016 5 44.0016V41.7016C5 38.1016 7.9 35.1016 11.5 35.1016H25.5C25.9 35.1016 26.2 35.2016 26.4 35.5016C26.6 35.8016 26.8 36.1016 26.8 36.4016Z" fill="white"/>
<path fill-rule="evenodd" clip-rule="evenodd" d="M21.3008 25.9008V30.1008L24.7009 36.6008V38.6008L27.5008 40.8008V25.3008L21.3008 25.9008Z" fill="#F39D56"/>
<path fill-rule="evenodd" clip-rule="evenodd" d="M19 20.3008V27.2008C19 27.7008 19.2 28.1008 19.5 28.5008L22.6 31.7008C23 32.1008 23.5 32.3008 24.1 32.3008H28C28.3 32.3008 28.7 32.1008 28.9 31.9008L31.4 28.6008C31.7 28.2008 31.8 27.8008 31.8 27.3008V16.8008H22.5C21.6 16.8008 20.7 17.2008 20 17.8008C19.4 18.5008 19 19.4008 19 20.3008Z" fill="#F39D56"/>
<path fill-rule="evenodd" clip-rule="evenodd" d="M28.5016 22.1L30.7016 26.1C30.8016 26.3 30.8016 26.5 30.7016 26.6C30.6016 26.8 30.5016 26.9 30.3016 26.9H28.6016V31.1C28.6016 31.7 28.1016 32.2 27.5016 32.2H24.2016C23.6016 32.2 23.1016 32 22.7016 31.6L19.6016 28.4C19.3016 28.1 19.1016 27.6 19.1016 27.1V22H28.5016V22.1Z" fill="#FDF4D9"/>
<path fill-rule="evenodd" clip-rule="evenodd" d="M19.7016 25.5992H18.1016C17.8016 25.5992 17.6016 25.4992 17.4016 25.2992C17.2016 25.0992 17.1016 24.8992 17.1016 24.5992V21.6992C17.1016 21.1992 17.5016 20.6992 18.1016 20.6992C18.4016 20.6992 18.7016 20.8992 19.0016 21.1992C19.5016 21.7992 19.7016 22.3992 19.7016 23.0992V25.5992Z" fill="#FDF4D9"/>
<path fill-rule="evenodd" clip-rule="evenodd" d="M34.1 20.2H19V17H32.2L34.5 19.3C34.7 19.5 34.7 19.7 34.6 19.9C34.5 20.1 34.3 20.2 34.1 20.2Z" fill="#4B4B4B"/>
<path fill-rule="evenodd" clip-rule="evenodd" d="M29.1008 8.90101C29.7008 8.80101 30.4008 9.00101 31.0008 9.30101C32.5008 10.101 33.3008 11.201 34.5008 12.401C34.7009 12.601 34.8008 12.801 34.8008 13.101C34.8008 13.401 34.7009 13.601 34.5008 13.801C33.5008 15.201 32.4008 16.301 32.3008 16.301L15.9008 16.001C15.1008 15.801 14.4008 15.701 13.6008 15.501C13.2008 15.401 12.8008 15.001 12.8008 14.501C12.8008 14.001 13.0008 13.601 13.4008 13.401C18.3008 10.801 23.6008 9.30101 29.1008 8.90101Z" fill="#4B4B4B"/>
<path fill-rule="evenodd" clip-rule="evenodd" d="M15.6992 16H32.5991L33.0991 17.9H15.6992V16Z" fill="#995FAF"/>
<path fill-rule="evenodd" clip-rule="evenodd" d="M24.7016 36.5992H15.6016V32.1992H20.4016C22.7016 32.2992 24.7016 34.1992 24.7016 36.5992Z" fill="white"/>
<path fill-rule="evenodd" clip-rule="evenodd" d="M28.5 39.6984V54.9984C27.8 54.9984 27.2 54.6984 26.7 54.2984C26.2 53.7984 26 53.1984 26 52.4984V40.0984L23.5 37.3984H25.8H30.6L28.5 39.6984Z" fill="#7700A2"/>
<path d="M44.7005 27.6992C40.8005 27.6992 37.1005 31.1992 35.0005 36.0992C34.3005 37.7992 33.8005 39.5992 33.6005 41.4992C33.1005 45.9992 34.0005 49.9992 36.0005 52.4992C36.5005 53.1992 37.1005 53.6992 37.8005 54.1992C38.8005 54.8992 40.0005 55.1992 41.2005 55.1992C46.3005 55.1992 51.2005 49.1992 52.3005 41.7992C52.3005 41.6992 52.3005 41.5992 52.3005 41.3992C53.4005 33.8992 49.9005 27.6992 44.7005 27.6992ZM37.6005 37.6992C39.2005 33.1992 42.4005 30.3992 44.9005 30.3992C45.9005 30.3992 46.9005 30.8992 47.5005 31.6992C48.9005 33.4992 49.7005 35.6992 49.7005 38.0992C49.7005 38.3992 49.6005 38.6992 49.4005 38.8992C49.2005 39.0992 48.9005 39.2992 48.6005 39.2992H38.6005C38.2005 39.2992 37.9005 39.1992 37.7005 38.8992C37.5005 38.3992 37.4005 37.9992 37.6005 37.6992ZM36.4005 42.8992C36.4005 42.5992 36.7005 42.3992 36.9005 42.3992H39.2005C39.9005 42.3992 40.5005 42.6992 41.0005 43.1992C41.4005 43.6992 41.6005 44.3992 41.5005 45.0992L40.2005 52.3992C39.6005 52.1992 39.0005 51.7992 38.5005 51.2992C37.0005 49.4992 36.2005 46.3992 36.4005 42.8992ZM46.8005 48.7992C45.7005 50.2992 44.5005 51.4992 43.3005 52.0992L43.4005 51.3992L44.5005 45.1992C44.8005 43.5992 46.1005 42.4992 47.7005 42.4992H48.7005C48.9005 42.4992 49.0005 42.5992 49.1005 42.6992C49.2005 42.7992 49.2005 42.9992 49.2005 43.1992C48.7005 45.2992 47.9005 47.1992 46.8005 48.7992C46.8005 48.6992 46.8005 48.6992 46.8005 48.7992Z" fill="#4B4B4B"/>
</g>
<defs>
<clipPath id="clip0_487_4900">
<rect width="56" height="56" fill="white"/>
</clipPath>
</defs>
</svg>
