<svg width="56" height="56" viewBox="0 0 56 56" fill="none" xmlns="http://www.w3.org/2000/svg">
<path d="M13.7113 25.883H46V19.2128C45.1259 17.8435 44.7533 17.4921 44.1443 17.1064H13.7113V25.883Z" fill="#EF5E31"/>
<path d="M10 25.883H13.7113V17.1064C11.8339 18.1852 10.8537 18.8454 10 20.617V25.883Z" fill="#D23023"/>
<path d="M13.7113 48V44.8404V25.883H10V44.8404C10.5939 46.7048 11.8715 47.6711 13.7113 48Z" fill="#DFD7D5"/>
<path d="M19.6495 38.5213H27.8144V44.8404H19.6495V38.5213Z" fill="#E7D9D9"/>
<path d="M19.6495 29.3936H27.8144V36.0638H19.6495V29.3936Z" fill="#DFD7D5"/>
<path d="M33.3814 29.3936H41.1753V36.0638H33.3814V29.3936Z" fill="#DFD7D5"/>
<path d="M33.3814 38.5213H41.1753V44.8404H33.3814V38.5213Z" fill="#E7D9D9"/>
<path d="M35.9794 17.1064C39.178 16.2624 38.486 17.9179 35.9794 22.0213H39.3196C41.5055 17.9308 41.6668 16.2936 39.3196 15C37.4067 15.1879 35.2522 16.754 34.4948 17.1064H35.9794Z" fill="#60391A"/>
<path d="M21.5052 17.1064C24.7038 16.2624 23.6407 17.9179 21.134 22.0213H24.4742C26.6602 17.9308 26.8214 16.2936 24.4742 15C22.5613 15.1879 19.6645 16.754 18.9072 17.1064H21.5052Z" fill="#60391A"/>
<path fill-rule="evenodd" clip-rule="evenodd" d="M13.7113 44.8404V25.883H46V48H17.0515C14.5552 47.4649 13.7465 46.7701 13.7113 44.8404ZM19.6495 29.3936H27.8144V36.0638H19.6495V29.3936ZM33.3814 29.3936H41.1753V36.0638H33.3814V29.3936ZM19.6495 38.5213H27.8144V44.8404H19.6495V38.5213ZM33.3814 38.5213H41.1753V44.8404H33.3814V38.5213Z" fill="#F9FFFE"/>
<path d="M13.7113 44.8404V48H17.0515C14.5552 47.4649 13.7465 46.7701 13.7113 44.8404Z" fill="#DFD7D5"/>
</svg>
