<svg width="56" height="56" viewBox="0 0 56 56" fill="none" xmlns="http://www.w3.org/2000/svg">
<path d="M13.7113 21.883H46V15.2128C45.1259 13.8435 44.7533 13.4921 44.1443 13.1064H13.7113V21.883Z" fill="#EF5E31"/>
<path d="M10 21.883H13.7113V13.1064C11.8339 14.1852 10.8537 14.8454 10 16.617V21.883Z" fill="#D23023"/>
<path d="M13.7113 44V40.8404V21.883H10V40.8404C10.5939 42.7048 11.8715 43.6711 13.7113 44Z" fill="#DFD7D5"/>
<path d="M19.6495 34.5213H27.8144V40.8404H19.6495V34.5213Z" fill="#E7D9D9"/>
<path d="M19.6495 25.3936H27.8144V32.0638H19.6495V25.3936Z" fill="#DFD7D5"/>
<path d="M33.3814 25.3936H41.1753V32.0638H33.3814V25.3936Z" fill="#DFD7D5"/>
<path d="M33.3814 34.5213H41.1753V40.8404H33.3814V34.5213Z" fill="#E7D9D9"/>
<path d="M35.9794 13.1064C39.178 12.2624 38.486 13.9179 35.9794 18.0213H39.3196C41.5055 13.9308 41.6668 12.2936 39.3196 11C37.4067 11.1879 35.2522 12.754 34.4948 13.1064H35.9794Z" fill="#60391A"/>
<path d="M21.5052 13.1064C24.7038 12.2624 23.6407 13.9179 21.134 18.0213H24.4742C26.6602 13.9308 26.8214 12.2936 24.4742 11C22.5613 11.1879 19.6645 12.754 18.9072 13.1064H21.5052Z" fill="#60391A"/>
<path fill-rule="evenodd" clip-rule="evenodd" d="M13.7113 40.8404V21.883H46V44H17.0515C14.5552 43.4649 13.7465 42.7701 13.7113 40.8404ZM19.6495 25.3936H27.8144V32.0638H19.6495V25.3936ZM33.3814 25.3936H41.1753V32.0638H33.3814V25.3936ZM19.6495 34.5213H27.8144V40.8404H19.6495V34.5213ZM33.3814 34.5213H41.1753V40.8404H33.3814V34.5213Z" fill="#F9FFFE"/>
<path d="M13.7113 40.8404V44H17.0515C14.5552 43.4649 13.7465 42.7701 13.7113 40.8404Z" fill="#DFD7D5"/>
</svg>
