<svg width="42" height="39" viewBox="0 0 42 39" fill="none" xmlns="http://www.w3.org/2000/svg">
<path d="M4.3299 12.8617H42V4.97872C40.9803 3.36045 40.5455 2.94522 39.8351 2.48936H4.3299V12.8617Z" fill="#EF5E31"/>
<path d="M0 12.8617H4.3299V2.48936C2.13953 3.76432 0.995954 4.5446 0 6.6383V12.8617Z" fill="#D23023"/>
<path d="M4.3299 39V35.266V12.8617H0V35.266C0.692913 37.4693 2.18342 38.6114 4.3299 39Z" fill="#DFD7D5"/>
<path d="M11.2577 27.7979H20.7835V35.266H11.2577V27.7979Z" fill="#E7D9D9"/>
<path d="M11.2577 17.0106H20.7835V24.8936H11.2577V17.0106Z" fill="#DFD7D5"/>
<path d="M27.2784 17.0106H36.3711V24.8936H27.2784V17.0106Z" fill="#DFD7D5"/>
<path d="M27.2784 27.7979H36.3711V35.266H27.2784V27.7979Z" fill="#E7D9D9"/>
<path d="M30.3093 2.48936C34.041 1.4919 33.2337 3.44838 30.3093 8.29787H34.2062C36.7565 3.46365 36.9446 1.52885 34.2062 0C31.9745 0.222102 29.4609 2.07291 28.5773 2.48936H30.3093Z" fill="#60391A"/>
<path d="M13.4227 2.48936C17.1544 1.4919 15.9141 3.44838 12.9897 8.29787H16.8866C19.4369 3.46365 19.625 1.52885 16.8866 0C14.6549 0.222102 11.2753 2.07291 10.3918 2.48936H13.4227Z" fill="#60391A"/>
<path fill-rule="evenodd" clip-rule="evenodd" d="M4.3299 35.266V12.8617H42V39H8.22681C5.31438 38.3677 4.37094 37.5465 4.3299 35.266ZM11.2577 17.0106H20.7835V24.8936H11.2577V17.0106ZM27.2784 17.0106H36.3711V24.8936H27.2784V17.0106ZM11.2577 27.7979H20.7835V35.266H11.2577V27.7979ZM27.2784 27.7979H36.3711V35.266H27.2784V27.7979Z" fill="#F9FFFE"/>
<path d="M4.3299 35.266V39H8.22681C5.31438 38.3677 4.37094 37.5465 4.3299 35.266Z" fill="#DFD7D5"/>
</svg>
