<svg width="56" height="56" viewBox="0 0 56 56" fill="none" xmlns="http://www.w3.org/2000/svg">
<path d="M28.0008 45.2991C42.1945 45.2991 53.7008 44.7171 53.7008 43.9992C53.7008 43.2812 42.1945 42.6992 28.0008 42.6992C13.8071 42.6992 2.30078 43.2812 2.30078 43.9992C2.30078 44.7171 13.8071 45.2991 28.0008 45.2991Z" fill="#8841A2"/>
<path fill-rule="evenodd" clip-rule="evenodd" d="M45.9992 43.3984H9.99921C8.19922 43.3984 6.79922 41.9984 6.79922 40.1984L6.69922 17.0984C6.69922 15.2984 8.09922 13.8984 9.89922 13.8984H45.8992C47.6992 13.8984 49.0992 15.2984 49.0992 17.0984L49.1992 40.1984C49.1992 41.9984 47.7992 43.3984 45.9992 43.3984Z" fill="white"/>
<path d="M31.7016 38.8984H24.6016V43.4984H31.7016V38.8984Z" fill="#F18275"/>
<path fill-rule="evenodd" clip-rule="evenodd" d="M30.4 14.6992H46C47.4 14.6992 48.5 15.7992 48.5 17.1992V40.5991C48.5 42.1991 47.2 43.4992 45.6 43.4992H30.4C28.8 43.4992 27.5 42.1991 27.5 40.5991V17.5992C27.5 15.9992 28.8 14.6992 30.4 14.6992Z" fill="#FDF4D9"/>
<path d="M42.5913 14.7891L35.1914 14.8111L35.2109 21.4111L42.6109 21.3891L42.5913 14.7891Z" fill="#F39D56"/>
<path d="M45.3016 31.8008H32.6016V38.9009H45.3016V31.8008Z" fill="white"/>
<path d="M43.3984 33.5H34.3984V37.3H43.3984V33.5Z" fill="#F39D56"/>
<path fill-rule="evenodd" clip-rule="evenodd" d="M9.59922 14.8008H24.5992C26.1992 14.8008 27.4992 16.1008 27.4992 17.7008V40.7009C27.4992 42.3009 26.1992 43.6008 24.5992 43.6008H9.59922C7.99922 43.6008 6.69922 42.3009 6.69922 40.7009V17.7008C6.69922 16.1008 7.99922 14.8008 9.59922 14.8008Z" fill="#F39D56"/>
<path fill-rule="evenodd" clip-rule="evenodd" d="M25.4992 31.8984L18.3992 29.9984L16.4992 30.0984V20.3984L8.59922 27.1984L6.69922 26.9984V30.5984V40.5984C6.69922 42.1984 7.99922 43.4984 9.59922 43.4984H24.5992C24.8992 43.4984 25.1992 43.3984 25.4992 43.2984V31.8984Z" fill="#F38522"/>
<path fill-rule="evenodd" clip-rule="evenodd" d="M25.6 31.9004C25.6 31.9004 25.6 32.0004 25.5 32.0004C24.6 33.3004 17 30.5004 16.8 31.8004C16.5 33.1004 25.9 35.6004 25.2 36.9004C24.5 38.3004 15.8 33.5004 15.5 34.2004C15.2 34.9004 23.4 40.0004 22.6 40.8004C21.8 41.7004 14 35.5004 13.5 36.2004C13.1 36.8004 16.3 41.5004 16.7 42.8004C16.8 43.1004 16.7 43.2004 16.2 43.0004C16.1 42.9004 16.1 42.9004 16 42.8004C14.7 41.8004 13.7 40.6004 12.8 39.3004C11.9 38.0004 10.7 36.8004 9.3 35.9004C8.5 35.4004 7.8 34.9004 7.3 34.4004L6.8 34.3004L0.5 32.7004C0.1 31.2004 0 29.6004 0 28.0004C0 26.7004 0.1 25.5004 0.2 24.2004C1.9 25.3004 4 26.1004 5.7 26.5004C6 26.4004 6.3 26.2004 6.7 26.1004C6.9 26.0004 7.1 26.0004 7.4 25.9004C14.8 22.3004 14.8 18.3004 16 19.3004C16.5 19.7004 16.7 20.1004 16.6 20.6004C16.5 20.9004 16.4 21.3004 16.2 21.7004C15.6 22.9004 14.5 23.6004 13.9 24.6004C13.3 25.6004 14 26.6004 14.7 27.4004C15.2 27.9004 15.9 28.3004 16.6 28.6004C20.1 30.3004 26 30.5004 25.6 31.9004Z" fill="white"/>
</svg>
