<svg width="56" height="56" viewBox="0 0 56 56" fill="none" xmlns="http://www.w3.org/2000/svg">
<g clip-path="url(#clip0_466_4835)">
<path d="M27.1016 39.8V38.7C27.1016 37.5 28.0016 36.5 29.2016 36.5H33.5016C35.3016 36.5 36.9016 38 37.1016 39.9L27.1016 39.8Z" fill="#7700A2"/>
<path d="M39.2008 24.6992C40.3008 25.4992 40.3008 26.7992 40.3008 27.8992V29.0992C40.3008 31.0992 38.6008 32.7992 36.6008 32.7992H33.8008V24.6992H39.2008Z" fill="#7700A2"/>
<path d="M33 26.5H23.5V39.8H33V26.5Z" fill="#F39D56"/>
<path d="M27.8 38.7016V39.8016H33.5V34.6016H26.5L26.8 35.1016C27.5 36.2016 27.8 37.5016 27.8 38.7016Z" fill="#7700A2"/>
<path d="M32.5008 35.6984H28.5008L22.3008 29.2984V18.3984H37.9008V28.1984C37.9008 29.8984 37.3008 31.5984 36.2008 32.8984L34.4008 34.8984C33.7008 35.4984 33.1008 35.6984 32.5008 35.6984Z" fill="#F39D56"/>
<path d="M36.5984 28L34.1984 23.5V21.3C34.1984 20.9 33.7984 20.5 33.3984 20.5H24.9984L26.3984 26.5H22.3984V27.1V30.4L26.8984 35.1C27.2984 35.5 27.7984 35.7 28.2984 35.7H28.5984H31.1984H33.2984C33.6984 35.7 34.0984 35.3 34.0984 34.9V29.1H35.7984C36.4984 29.1 36.8984 28.5 36.5984 28Z" fill="#FDF4D9"/>
<path d="M41.4984 16.8984H20.3984V26.0984C20.3984 26.0984 21.1984 29.4984 22.4984 30.4984L23.3984 31.1984V26.6984H26.4984V21.5984C26.4984 20.2984 27.5984 19.1984 28.8984 19.1984H37.6984V26.6984C38.4984 26.6984 39.1984 25.9984 39.1984 25.1984V20.1984C40.1984 19.8984 41.4984 18.8984 41.4984 16.8984Z" fill="#7700A2"/>
<path d="M21.8016 32.8H24.6016C26.6016 32.8 28.3016 31.1 28.3016 29.1V27.9C28.3016 26.7 27.9016 25.6 27.2016 24.7L24.1016 20.5C23.4016 19.5 24.1016 18.2 25.3016 18.2H42.2016C41.3016 11 35.2016 5.5 27.9016 5.5C20.0016 5.5 13.6016 11.9 13.6016 19.8C13.6016 25.5 17.0016 30.5 21.8016 32.8Z" fill="#995FAF"/>
<path d="M24.6008 33.6992H22.2008C21.7008 33.6992 21.3008 33.2992 21.3008 32.7992C21.3008 32.2992 21.7008 31.8992 22.2008 31.8992H24.6008C26.2008 31.8992 27.4008 30.5992 27.4008 29.0992V27.8992C27.4008 26.8992 27.1008 25.9992 26.5008 25.1992L23.4008 20.9992C22.9008 20.2992 22.8008 19.2992 23.2008 18.4992C23.6008 17.6992 24.4008 17.1992 25.3008 17.1992H42.2008C42.7008 17.1992 43.1008 17.5992 43.1008 18.0992C43.1008 18.5992 42.6008 18.9992 42.1008 18.9992H25.3008C25.0008 18.9992 24.8008 19.1992 24.8008 19.2992C24.8008 19.3992 24.7008 19.5992 24.9008 19.8992L28.0008 24.0992C28.8008 25.1992 29.2008 26.4992 29.2008 27.7992V28.9992C29.1008 31.5992 27.1008 33.6992 24.6008 33.6992Z" fill="#7700A2"/>
<path d="M21 39.6984V38.5984C21 37.3984 21.9 36.3984 23.1 36.3984H27.4C29.2 36.3984 30.7 37.8984 31 39.7984L21 39.6984Z" fill="#995FAF"/>
<mask id="mask0_466_4835" style="mask-type:alpha" maskUnits="userSpaceOnUse" x="0" y="0" width="56" height="56">
<path d="M28 56C43.5 56 56 43.5 56 28C56 12.5 43.5 0 28 0C12.5 0 0 12.5 0 28C0 43.5 12.5 56 28 56Z" fill="#CCEFDC"/>
</mask>
<g mask="url(#mask0_466_4835)">
<path d="M47.7 56.2992H8.5V45.7992C8.5 42.4992 11.2 39.6992 14.6 39.6992H41.6C44.9 39.6992 47.7 42.3992 47.7 45.7992V56.2992Z" fill="#7700A2"/>
<path d="M23.2 39.6992H14.6C11.3 39.6992 8.5 42.3992 8.5 45.7992V56.3992H17.1V45.7992C17.2 42.4992 19.9 39.6992 23.2 39.6992Z" fill="#995FAF"/>
</g>
</g>
<defs>
<clipPath id="clip0_466_4835">
<rect width="56" height="56" fill="white"/>
</clipPath>
</defs>
</svg>
