<svg width="59" height="55" viewBox="0 0 59 55" fill="none" xmlns="http://www.w3.org/2000/svg">
<g clip-path="url(#clip0_471_4959)">
<path d="M37.5469 36.4942C37.5469 32.6467 40.2828 29.363 44.0156 28.7305L45.6182 28.9341C49.6301 29.444 52.6406 32.9113 52.6406 37.022V37.4997C52.6406 41.7374 49.2618 45.1728 45.0938 45.1728C40.9257 45.1728 37.5469 41.7374 37.5469 37.4997V36.4942Z" fill="#4B4B4B"/>
<path d="M30.8625 46.4859C43.049 46.4859 52.9281 46.0606 52.9281 45.5359C52.9281 45.0112 43.049 44.5859 30.8625 44.5859C18.676 44.5859 8.79688 45.0112 8.79688 45.5359C8.79688 46.0606 18.676 46.4859 30.8625 46.4859Z" fill="#8841A2"/>
<path d="M40.7932 35.6783C41.3998 33.516 43.6157 32.2631 45.7425 32.8799L46.5537 33.1152C48.9678 33.8153 50.4062 36.3299 49.8108 38.8094C49.1822 41.4275 46.5397 42.9901 43.9907 42.2507L43.8212 42.2016C41.34 41.482 39.9023 38.8536 40.6101 36.3308L40.7932 35.6783Z" fill="white"/>
<path d="M42.5781 9H29.2812L39.7031 11.3322C39.8156 12.9121 39.9884 12.7148 40.4219 13.75C42.6933 16.3284 43.9357 17.7813 45.4531 20.3269L44.7344 24.3462C46.1375 26.3027 47.225 28.8502 47.9946 30.9231C49.6151 32.2188 50.1101 31.6504 51.2474 32.8046C51.5648 33.1266 51.9022 33.469 52.2812 33.8462C50.7727 30.2785 49.663 28.2452 46.5312 24.3462C46.9518 23.9451 47.3763 22.7028 48.3281 19.5962C46.6143 17.2776 45.2716 15.6714 43.5206 13.75C42.8466 13.0103 42.1119 12.2239 41.2724 11.3322C41.2287 11.2859 42.6223 11.3792 42.5781 11.3322V9Z" fill="#8020A2"/>
<path d="M47.9946 30.9231C47.225 28.8502 46.1375 26.3027 44.7344 24.3462L45.4531 20.3269C43.9357 17.7813 42.6933 16.3284 40.4219 13.75C39.9884 12.7148 39.8156 12.9121 39.7031 11.3322L29.2812 9H27.8438L33.451 11.3322L35.75 12.2885V13.75L34.6719 14.8462V20.3269C39.8365 24.3994 42.0613 27.7643 43.6562 30.1923C45.4799 29.8697 45.9031 30.6446 47.9946 30.9231Z" fill="#995FAF"/>
<path d="M41.2734 11.332C42.1129 12.2237 42.8476 13.0101 43.5216 13.7498H46.5322V11.332H41.2734Z" fill="#653576"/>
<path d="M35.75 13.7498V12.2883L33.451 11.332H26.4062V13.7498H35.75Z" fill="#653576"/>
<path d="M22.0938 24.3477L7 19.5977C9.43166 22.4596 10.7568 24.0639 12.3906 26.9053C16.9187 29.0869 18.9657 30.786 22.0938 34.5784V24.3477Z" fill="#995FAF"/>
<path d="M43.6562 30.1935C42.0613 27.7655 39.8365 24.4006 34.6719 20.3281C33.9248 26.1189 33.4652 29.3009 31.4375 33.1166C29.0064 30.4868 28.2416 29.1894 27.4844 26.905C28.1566 22.6529 28.2879 21.5502 27.8438 21.0589C27.7469 19.7393 27.1774 18.9968 24.25 17.7704C22.0674 17.1537 23.4764 16.9813 9.51562 15.5781C7.84348 17.3995 7.4253 18.2248 7 19.5974L22.0938 24.3474V34.5781C18.9657 30.7857 16.9187 29.0866 12.3906 26.905C10.122 27.1777 9.40616 28.3172 8.4375 30.9243C20.583 35.1893 24.5794 37.4494 32.1562 41.5204C35.4067 41.5855 37.0655 41.5785 38.625 41.155C38.5871 38.108 37.9183 37.0229 38.2656 34.9435C39.9034 31.9183 41.1926 32.1556 43.6562 30.1935Z" fill="#8020A2"/>
<path d="M7.72769 37.6816C7.5273 33.6068 10.7227 30.1914 14.7355 30.1914C18.3108 30.1914 21.3143 32.9246 21.7091 36.5375L21.8286 37.631C22.3309 42.2272 18.484 46.0969 13.969 45.5371C10.5646 45.115 7.95299 42.2631 7.78173 38.7804L7.72769 37.6816Z" fill="#4B4B4B"/>
<path d="M10.6211 36.4016C11.1557 34.4959 13.1085 33.3918 14.9828 33.9355L15.6977 34.1428C17.8251 34.7598 19.0927 36.9758 18.568 39.1609C18.0141 41.4681 15.6853 42.8451 13.439 42.1937L13.2896 42.1503C11.103 41.5162 9.83603 39.1998 10.4598 36.9766L10.6211 36.4016Z" fill="white"/>
</g>
<defs>
<clipPath id="clip0_471_4959">
<rect width="46" height="38" fill="white" transform="translate(7 9)"/>
</clipPath>
</defs>
</svg>
